#!OML:ASF F:\VICON\USERDATA\INSTALL\rory3\rory3.ASF
:FULLY-SPECIFIED
:DEGREES
529
root -12.2056 18.2052 15.3033 -190.371 70.3062 171.629
lowerback 12.3101 3.0657 -1.30033
upperback 3.28173 4.0213 -1.33562
thorax -3.43639 2.07475 -1.26814
lowerneck -15.2443 4.20147 -9.23299
upperneck 43.4087 15.0408 -0.948796
head 18.593 5.44801 4.40487
rclavicle -2.75705e-014 1.14891e-014
rhumerus -38.6697 -24.3694 -69.4495
rradius 25.1685
rwrist 11.0596
rhand -13.1769 7.48371
rfingers 7.12502
rthumb 12.9227 -22.0962
lclavicle -2.75705e-014 1.14891e-014
lhumerus -26.4641 2.77782 81.6269
lradius 45.3042
lwrist -0.379477
lhand -21.7167 25.6733
lfingers 7.12502
lthumb 4.6823 55.6016
rfemur -22.1771 -12.4259 14.5344
rtibia 43.7887
rfoot -6.52956 -3.52128
rtoes -9.99115
lfemur 0.74038 -8.57904 -24.5543
ltibia 22.3226
lfoot 1.36285 -22.5756
ltoes 11.5
530
root -12.317 18.2109 15.3053 -190.865 70.3883 171.288
lowerback 12.1955 2.97293 -1.4364
upperback 3.3231 3.88592 -1.36701
thorax -3.33844 2.00936 -1.19586
lowerneck -15.1788 4.10008 -9.16036
upperneck 43.3744 14.8496 -1.04102
head 18.5859 5.36941 4.31094
rclavicle 1.38435e-014 -8.59744e-015
rhumerus -38.7625 -24.4384 -69.7267
rradius 25.4123
rwrist 11.6632
rhand -13.0042 7.57616
rfingers 7.12502
rthumb 13.0891 -21.9931
lclavicle 1.38435e-014 -8.59744e-015
lhumerus -26.482 2.72394 81.2053
lradius 45.7738
lwrist 0.00831556
lhand -21.6723 25.5936
lfingers 7.12502
lthumb 4.72522 55.5209
rfemur -21.9313 -12.9041 14.5208
rtibia 45.7642
rfoot -6.4781 -3.12212
rtoes -11.2802
lfemur 0.432419 -8.67047 -24.7468
ltibia 22.5226
lfoot 1.50513 -22.5463
ltoes 10.877
531
root -12.4298 18.2174 15.312 -191.124 70.4579 171.203
lowerback 12.1867 2.89522 -1.59277
upperback 3.30474 3.76402 -1.31159
thorax -3.36728 1.94866 -1.03314
lowerneck -15.0394 3.98965 -9.21487
upperneck 43.3053 14.6356 -1.06787
head 18.5171 5.27998 4.25401
rclavicle 8.80818e-014 -2.78671e-014
rhumerus -38.9347 -24.2676 -69.9233
rradius 25.7069
rwrist 12.0901
rhand -12.9217 7.6923
rfingers 7.12502
rthumb 13.1686 -21.8718
lclavicle 8.80818e-014 -2.78671e-014
lhumerus -26.6416 2.85966 80.8626
lradius 46.2293
lwrist 0.179003
lhand -21.8432 25.5456
lfingers 7.12502
lthumb 4.56017 55.4766
rfemur -21.6167 -13.175 14.5858
rtibia 47.6956
rfoot -6.51406 -2.75278
rtoes -12.5233
lfemur 0.10596 -8.66668 -24.8243
ltibia 22.7262
lfoot 1.27916 -22.6853
ltoes 7.86423
532
root -12.5408 18.2166 15.3197 -191.136 70.5181 171.399
lowerback 12.2165 2.78086 -1.72349
upperback 3.26613 3.59647 -1.1663
thorax -3.44175 1.86429 -0.787294
lowerneck -14.8506 3.89468 -9.48734
upperneck 43.2205 14.4279 -0.938297
head 18.3827 5.18563 4.29642
rclavicle 1.80762e-014 -2.03754e-015
rhumerus -39.0073 -23.9546 -70.1549
rradius 25.9695
rwrist 12.0178
rhand -12.8352 7.56638
rfingers 7.12502
rthumb 13.252 -21.9923
lclavicle 1.80762e-014 -2.03754e-015
lhumerus -26.9624 3.19383 80.5735
lradius 46.6825
lwrist 0.433079
lhand -21.7015 25.3663
lfingers 7.12502
lthumb 4.69698 55.2943
rfemur -21.1697 -13.4521 14.6961
rtibia 49.5308
rfoot -6.47679 -2.14244
rtoes -13.5393
lfemur -0.24191 -8.40282 -24.7419
ltibia 22.9514
lfoot 1.4448 -23.0432
ltoes 6.37492
533
root -12.648 18.2217 15.3259 -191.184 70.4891 171.552
lowerback 12.1961 2.67014 -1.7548
upperback 3.23567 3.44503 -1.13522
thorax -3.46597 1.78853 -0.714599
lowerneck -14.6801 3.75972 -9.61098
upperneck 43.1656 14.0991 -0.77558
head 18.2848 5.06597 4.31405
rclavicle -4.61228e-015 3.68334e-015
rhumerus -39.1249 -23.9578 -70.3942
rradius 26.1362
rwrist 11.837
rhand -12.8273 7.52229
rfingers 7.12502
rthumb 13.2597 -22.0359
lclavicle -4.61228e-015 3.68334e-015
lhumerus -27.1782 3.24801 80.1613
lradius 47.024
lwrist 0.691039
lhand -21.4952 25.1642
lfingers 7.12502
lthumb 4.89618 55.0876
rfemur -20.6099 -13.7424 14.7214
rtibia 51.2377
rfoot -6.32161 -1.4978
rtoes -13.6037
lfemur -0.60752 -8.38194 -24.695
ltibia 23.269
lfoot 2.10467 -23.225
ltoes 7.63942
534
root -12.7577 18.2289 15.3304 -191.234 70.4572 171.722
lowerback 12.1785 2.59822 -1.65924
upperback 3.23706 3.36041 -1.20022
thorax -3.44538 1.7466 -0.821766
lowerneck -14.4559 3.59245 -9.48507
upperneck 43.0325 13.6648 -0.744914
head 18.1699 4.92952 4.20702
rclavicle -1.07064e-014 1.2424e-014
rhumerus -39.2955 -24.1237 -70.6828
rradius 26.2986
rwrist 11.5732
rhand -12.9462 7.78393
rfingers 7.12502
rthumb 13.1451 -21.7817
lclavicle -1.07064e-014 1.2424e-014
lhumerus -27.1023 3.06651 79.7251
lradius 47.1337
lwrist 0.935258
lhand -21.8758 25.2797
lfingers 7.12502
lthumb 4.52872 55.2113
rfemur -20.0375 -14.078 14.7428
rtibia 53.0193
rfoot -6.25346 -0.933699
rtoes -12.923
lfemur -0.899306 -8.64609 -24.6544
ltibia 23.4906
lfoot 3.28121 -23.0395
ltoes 11.0472
535
root -12.8669 18.2346 15.3355 -191.225 70.4753 171.955
lowerback 12.1512 2.53912 -1.58459
upperback 3.23086 3.29128 -1.19683
thorax -3.4331 1.71171 -0.848361
lowerneck -14.2139 3.40338 -9.50954
upperneck 42.9406 13.2482 -0.67349
head 18.0603 4.7822 4.1487
rclavicle 1.61264e-014 1.37658e-014
rhumerus -39.4367 -24.3632 -70.8139
rradius 26.3483
rwrist 11.4852
rhand -13.2087 8.0498
rfingers 7.12502
rthumb 12.892 -21.532
lclavicle 1.61264e-014 1.37658e-014
lhumerus -27.0295 2.93713 79.4013
lradius 47.1579
lwrist 1.15917
lhand -21.9257 25.3316
lfingers 7.12502
lthumb 4.48047 55.2642
rfemur -19.3022 -14.2573 14.7643
rtibia 54.5084
rfoot -6.0124 -0.355605
rtoes -11.2039
lfemur -1.24701 -8.71449 -24.5584
ltibia 23.7561
lfoot 4.42304 -22.9202
ltoes 14.4382
536
root -12.9808 18.1671 15.3486 -191.06 70.5315 172.287
lowerback 12.0327 2.46761 -1.58319
upperback 3.20234 3.19903 -1.08817
thorax -3.40452 1.6641 -0.717357
lowerneck -14.0723 3.2412 -9.63053
upperneck 42.948 12.9477 -0.580219
head 18.024 4.65945 4.15057
rclavicle 5.56908e-014 1.21756e-015
rhumerus -39.5401 -24.493 -70.8485
rradius 26.4304
rwrist 11.5316
rhand -13.3856 8.11506
rfingers 7.12502
rthumb 12.7215 -21.4774
lclavicle 5.56908e-014 1.21756e-015
lhumerus -27.0265 2.97928 79.1893
lradius 47.0995
lwrist 1.30216
lhand -21.9625 25.3331
lfingers 7.12502
lthumb 4.44493 55.2664
rfemur -18.8054 -14.2466 14.8599
rtibia 56.0993
rfoot -5.72931 0.191626
rtoes -11.7695
lfemur -1.30749 -6.43084 -24.704
ltibia 23.9723
lfoot -6.78579 -24.6366
ltoes -25.3154
537
root -13.0759 18.2309 15.3536 -191.046 70.5651 172.468
lowerback 11.9996 2.4318 -1.65806
upperback 3.10112 3.1379 -1.01819
thorax -3.49999 1.63168 -0.595234
lowerneck -13.9003 3.04684 -9.68062
upperneck 43.0128 12.5857 -0.471734
head 18.0214 4.52494 4.14154
rclavicle 2.44039e-014 2.73329e-016
rhumerus -39.804 -24.3051 -71.0079
rradius 26.6657
rwrist 11.1037
rhand -13.194 8.18797
rfingers 7.12502
rthumb 12.9062 -21.3929
lclavicle 2.44039e-014 2.73329e-016
lhumerus -27.0875 3.04219 78.9382
lradius 46.9476
lwrist 1.33426
lhand -21.8639 25.6158
lfingers 7.12502
lthumb 4.54022 55.5471
rfemur -17.7088 -14.3513 14.8961
rtibia 57.0488
rfoot -5.47076 0.689941
rtoes -13.6724
lfemur -1.91144 -8.11465 -24.4361
ltibia 24.233
lfoot 3.16923 -24.0866
ltoes 7.39073
538
root -13.1728 18.2504 15.3585 -191.328 70.5816 172.335
lowerback 11.9995 2.38706 -1.73699
upperback 2.92274 3.05654 -1.036
thorax -3.68902 1.5888 -0.56286
lowerneck -13.4871 2.847 -9.72138
upperneck 43.0062 12.1679 -0.37034
head 17.9178 4.38634 4.09907
rclavicle -9.62615e-014 7.42958e-015
rhumerus -40.1968 -24.043 -71.1839
rradius 26.8787
rwrist 10.5415
rhand -13.0814 8.22843
rfingers 7.12502
rthumb 13.0147 -21.3456
lclavicle -9.62615e-014 7.42958e-015
lhumerus -27.268 3.05888 78.6156
lradius 46.7441
lwrist 1.34547
lhand -21.4969 25.8809
lfingers 7.12502
lthumb 4.89455 55.8043
rfemur -16.683 -14.4931 14.8066
rtibia 57.9757
rfoot -5.20967 1.08895
rtoes -14.3236
lfemur -2.3306 -8.29031 -24.4162
ltibia 24.4192
lfoot 5.55222 -23.7814
ltoes 14.7429
539
root -13.273 18.2514 15.364 -190.945 70.6091 172.87
lowerback 11.8399 2.32894 -1.46749
upperback 2.84055 3.00845 -1.05259
thorax -3.67294 1.56077 -0.718563
lowerneck -13.1559 2.61432 -9.80393
upperneck 42.9679 11.6638 -0.185112
head 17.809 4.21105 4.08962
rclavicle 4.77829e-014 -1.7344e-014
rhumerus -40.4205 -24.2271 -71.291
rradius 26.9491
rwrist 10.3998
rhand -13.3199 8.08691
rfingers 7.12502
rthumb 12.7848 -21.5016
lclavicle 4.77829e-014 -1.7344e-014
lhumerus -27.214 2.90738 78.2936
lradius 46.4829
lwrist 1.44913
lhand -21.4923 25.6443
lfingers 7.12502
lthumb 4.89896 55.5677
rfemur -15.6141 -14.7289 14.9438
rtibia 58.6054
rfoot -4.68124 1.53889
rtoes -14.4398
lfemur -2.73352 -8.02798 -24.225
ltibia 24.6948
lfoot 5.53076 -24.3714
ltoes 13.3035
